<?xml version="1.0" encoding="utf-8"?>
<!-- Generator: Adobe Illustrator 16.0.0, SVG Export Plug-In . SVG Version: 6.00 Build 0)  -->
<!DOCTYPE svg PUBLIC "-//W3C//DTD SVG 1.1//EN" "http://www.w3.org/Graphics/SVG/1.1/DTD/svg11.dtd">
<svg version="1.1" id="Layer_1" xmlns="http://www.w3.org/2000/svg" xmlns:xlink="http://www.w3.org/1999/xlink" x="0px" y="0px"
	 width="300px" height="60px" viewBox="0 41.5 300 60" enable-background="new 0 41.5 300 60" xml:space="preserve">
<title>Wallix_Logo_ForWeb</title>
<path fill="#F37324" d="M145.218,45.461l-40.399,19.271l-0.018,1.381l40.399,19.129v-5.805l-10.328-4.379
	c1.396-3.07,2.147-6.395,2.206-9.768c-0.031-3.255-0.79-6.461-2.22-9.385l10.359-4.665V45.461z M115.208,65.305l14.637-7.044
	c1.007,2.209,1.544,4.603,1.578,7.03c0,3.229-1.036,6.298-1.526,7.596L115.208,65.305z"/>
<polygon fill="#FFFFFF" points="157.354,80.418 157.354,45.143 152.134,45.143 152.12,85.557 172.527,85.557 172.527,80.418 "/>
<polygon fill="#FFFFFF" points="182.765,80.418 182.765,45.143 177.53,45.143 177.53,85.557 197.934,85.557 197.934,80.418 "/>
<rect x="202.682" y="52.032" fill="#FFFFFF" width="5.23" height="33.528"/>
<rect x="202.667" y="45.164" fill="#F37324" width="5.231" height="5.625"/>
<polygon fill="#FFFFFF" points="231.25,64.694 243.332,45.143 237.193,45.143 228.178,59.735 219.127,45.143 212.98,45.143 
	225.111,64.701 212.225,85.557 218.364,85.557 228.184,69.663 238.042,85.557 244.188,85.557 "/>
<polygon fill="#FFFFFF" points="104.819,45.192 104.798,45.192 99.394,45.192 99.367,45.192 97.285,52.563 91.77,71.82 
	81.239,45.192 81.149,45.192 79.485,45.192 79.392,45.192 68.864,71.786 61.257,45.192 61.247,45.192 55.836,45.192 55.812,45.192 
	59.009,56.279 67.399,85.604 67.462,85.604 67.465,85.618 68.56,85.604 69.123,85.604 80.317,57.297 91.518,85.604 92.063,85.604 
	93.155,85.618 93.158,85.604 93.245,85.604 "/>
<path fill="#FFFFFF" d="M61.153,97.717c-0.256,0.363-0.601,0.652-1.001,0.843c-0.388,0.171-0.809,0.257-1.232,0.253
	c-0.431,0.006-0.859-0.073-1.26-0.232c-0.371-0.145-0.705-0.369-0.981-0.656c-0.279-0.286-0.496-0.627-0.639-1.001
	c-0.155-0.405-0.232-0.837-0.228-1.271c-0.004-0.432,0.073-0.861,0.228-1.264c0.144-0.372,0.361-0.712,0.639-0.998
	c0.278-0.285,0.612-0.51,0.981-0.659c0.4-0.163,0.828-0.243,1.26-0.238c0.391-0.003,0.78,0.071,1.143,0.218
	c0.368,0.156,0.688,0.406,0.929,0.725l-0.459,0.383c-0.172-0.271-0.421-0.486-0.715-0.617c-0.282-0.129-0.588-0.196-0.897-0.197
	c-0.363-0.005-0.722,0.064-1.057,0.203c-0.305,0.129-0.579,0.318-0.805,0.561c-0.225,0.243-0.397,0.529-0.507,0.842
	c-0.235,0.671-0.235,1.401,0,2.072c0.111,0.312,0.284,0.598,0.507,0.842c0.228,0.239,0.501,0.43,0.805,0.561
	c0.334,0.139,0.694,0.208,1.057,0.203c0.16,0,0.32-0.02,0.477-0.055c0.166-0.039,0.327-0.096,0.479-0.17
	c0.16-0.078,0.309-0.176,0.446-0.29c0.145-0.12,0.271-0.263,0.373-0.421L61.153,97.717z"/>
<path fill="#FFFFFF" d="M66.93,96.063l-2.21-3.422h0.673l1.816,2.853l1.861-2.853h0.622l-2.21,3.422v2.589H66.93V96.063z"/>
<path fill="#FFFFFF" d="M73.836,92.642h1.727c0.231-0.001,0.462,0.019,0.69,0.056c0.222,0.029,0.436,0.107,0.625,0.228
	c0.189,0.12,0.345,0.286,0.452,0.483c0.125,0.255,0.185,0.537,0.173,0.822c0.005,0.289-0.091,0.571-0.273,0.797
	c-0.206,0.24-0.491,0.4-0.805,0.449v0.018c0.188,0.015,0.371,0.063,0.542,0.141c0.161,0.072,0.305,0.176,0.424,0.305
	c0.121,0.133,0.215,0.287,0.276,0.455c0.158,0.469,0.122,0.98-0.1,1.423c-0.125,0.209-0.297,0.386-0.504,0.515
	c-0.201,0.123-0.422,0.209-0.653,0.256c-0.217,0.042-0.438,0.064-0.66,0.064h-1.916V92.642z M74.398,95.238h1.164
	c0.234,0.006,0.468-0.029,0.69-0.104c0.157-0.059,0.301-0.146,0.425-0.26c0.093-0.092,0.163-0.203,0.204-0.328
	c0.032-0.102,0.05-0.209,0.052-0.316c0.005-0.182-0.032-0.361-0.107-0.525c-0.064-0.137-0.162-0.256-0.283-0.346
	c-0.127-0.082-0.269-0.141-0.418-0.172c-0.165-0.035-0.333-0.053-0.5-0.053h-1.24L74.398,95.238z M74.398,98.146h1.281
	c0.27,0.009,0.539-0.032,0.794-0.121c0.178-0.065,0.339-0.17,0.47-0.308c0.101-0.106,0.175-0.235,0.218-0.376
	c0.035-0.118,0.053-0.239,0.055-0.362c0.006-0.197-0.038-0.394-0.128-0.57c-0.083-0.154-0.201-0.287-0.345-0.387
	c-0.14-0.1-0.296-0.172-0.463-0.214c-0.169-0.047-0.345-0.069-0.521-0.069h-1.381L74.398,98.146z"/>
<path fill="#FFFFFF" d="M82.599,92.642h3.667v0.507h-3.107v2.152h2.921v0.51h-2.921v2.346h3.252v0.508h-3.798L82.599,92.642z"/>
<path fill="#FFFFFF" d="M91.035,92.642h1.578c0.08,0,0.187,0,0.325,0c0.148,0.009,0.295,0.025,0.442,0.052
	c0.165,0.029,0.327,0.075,0.483,0.135c0.163,0.063,0.313,0.155,0.442,0.272c0.134,0.128,0.244,0.28,0.321,0.449
	c0.091,0.208,0.134,0.435,0.127,0.663c0.01,0.246-0.041,0.492-0.148,0.715c-0.09,0.176-0.218,0.33-0.373,0.451
	c-0.148,0.116-0.317,0.204-0.497,0.26c-0.169,0.055-0.342,0.095-0.518,0.121l1.748,2.887h-0.636l-1.692-2.853h-1.036v2.853h-0.56
	L91.035,92.642z M91.594,95.29h1.188c0.244,0.008,0.488-0.03,0.718-0.11c0.162-0.058,0.308-0.15,0.428-0.273
	c0.097-0.096,0.169-0.215,0.21-0.346c0.034-0.111,0.052-0.228,0.056-0.345c-0.003-0.116-0.021-0.233-0.056-0.345
	c-0.042-0.131-0.114-0.249-0.21-0.346c-0.122-0.12-0.268-0.213-0.428-0.273c-0.23-0.08-0.474-0.117-0.718-0.109h-1.188V95.29z"/>
<path fill="#FFFFFF" d="M99.629,97.541c0.132,0.242,0.331,0.439,0.573,0.57c0.248,0.127,0.523,0.191,0.801,0.186
	c0.18,0.002,0.358-0.027,0.528-0.086c0.156-0.051,0.302-0.133,0.428-0.238c0.121-0.102,0.22-0.227,0.29-0.369
	c0.072-0.152,0.108-0.318,0.107-0.487c0.008-0.183-0.039-0.362-0.135-0.518c-0.086-0.142-0.204-0.259-0.345-0.345
	c-0.157-0.095-0.323-0.17-0.497-0.225l-0.566-0.19c-0.193-0.061-0.384-0.131-0.57-0.21c-0.181-0.078-0.349-0.183-0.497-0.312
	c-0.149-0.132-0.268-0.296-0.345-0.479c-0.095-0.225-0.14-0.468-0.131-0.711c-0.004-0.246,0.049-0.49,0.155-0.712
	c0.101-0.202,0.246-0.38,0.425-0.519c0.185-0.141,0.393-0.246,0.615-0.314c0.237-0.07,0.484-0.105,0.732-0.106
	c0.313-0.003,0.623,0.058,0.912,0.177c0.292,0.121,0.545,0.32,0.732,0.576l-0.483,0.346c-0.26-0.391-0.706-0.616-1.174-0.594
	c-0.175-0.002-0.35,0.023-0.518,0.072c-0.155,0.043-0.3,0.114-0.428,0.211c-0.122,0.092-0.222,0.209-0.293,0.345
	c-0.077,0.157-0.114,0.329-0.11,0.504c-0.016,0.251,0.065,0.499,0.228,0.69c0.162,0.167,0.357,0.298,0.573,0.383
	c0.244,0.1,0.495,0.181,0.75,0.246c0.258,0.067,0.508,0.162,0.746,0.283c0.228,0.117,0.424,0.288,0.573,0.497
	c0.168,0.261,0.249,0.569,0.231,0.88c0.004,0.25-0.048,0.496-0.152,0.723c-0.1,0.203-0.241,0.385-0.415,0.531
	c-0.177,0.146-0.379,0.258-0.597,0.328c-0.224,0.07-0.457,0.106-0.691,0.107c-0.376,0.004-0.749-0.066-1.098-0.207
	c-0.344-0.146-0.641-0.387-0.856-0.691L99.629,97.541z"/>
<path fill="#FFFFFF" d="M107.588,92.642h3.677v0.507h-3.107v2.152h2.921v0.51h-2.921v2.346h3.252v0.508h-3.798L107.588,92.642z"/>
<path fill="#FFFFFF" d="M120.972,97.717c-0.255,0.363-0.601,0.654-1.001,0.843c-0.389,0.171-0.809,0.257-1.233,0.253
	c-0.431,0.004-0.859-0.074-1.26-0.232c-0.37-0.146-0.704-0.369-0.98-0.656c-0.278-0.287-0.494-0.627-0.635-1.001
	c-0.164-0.405-0.247-0.84-0.245-1.277c-0.005-0.433,0.073-0.861,0.231-1.264c0.143-0.372,0.359-0.712,0.635-0.998
	c0.278-0.284,0.612-0.509,0.981-0.659c0.4-0.162,0.829-0.243,1.26-0.238c0.392-0.004,0.78,0.07,1.143,0.217
	c0.369,0.156,0.69,0.406,0.932,0.726l-0.459,0.384c-0.174-0.272-0.423-0.487-0.718-0.619c-0.282-0.129-0.588-0.195-0.898-0.196
	c-0.362-0.005-0.722,0.064-1.057,0.204c-0.304,0.127-0.577,0.318-0.801,0.559c-0.224,0.244-0.398,0.531-0.511,0.843
	c-0.231,0.671-0.231,1.4,0,2.071c0.114,0.313,0.287,0.598,0.511,0.844c0.227,0.238,0.499,0.429,0.801,0.559
	c0.334,0.139,0.694,0.209,1.057,0.203c0.161,0.001,0.32-0.018,0.477-0.055c0.166-0.037,0.327-0.094,0.48-0.169
	c0.159-0.079,0.309-0.177,0.445-0.29c0.146-0.121,0.272-0.264,0.376-0.422L120.972,97.717z"/>
<path fill="#FFFFFF" d="M129.669,96.354c0.002,0.312-0.035,0.623-0.111,0.926c-0.068,0.282-0.194,0.548-0.369,0.779
	c-0.183,0.234-0.42,0.421-0.69,0.543c-0.664,0.273-1.409,0.273-2.072,0c-0.271-0.123-0.508-0.309-0.691-0.543
	c-0.175-0.231-0.301-0.497-0.369-0.779c-0.074-0.303-0.111-0.614-0.111-0.926v-3.712h0.56v3.567c0.001,0.23,0.021,0.461,0.059,0.689
	c0.037,0.242,0.117,0.477,0.235,0.691c0.12,0.211,0.289,0.389,0.494,0.518c0.53,0.271,1.159,0.271,1.688,0
	c0.205-0.129,0.375-0.307,0.494-0.518c0.118-0.215,0.198-0.449,0.235-0.691c0.038-0.229,0.057-0.459,0.059-0.689v-3.567h0.559
	L129.669,96.354z"/>
<path fill="#FFFFFF" d="M134.607,92.642h1.582c0.079,0,0.187,0,0.321,0c0.148,0.009,0.295,0.025,0.442,0.052
	c0.165,0.029,0.327,0.074,0.483,0.135c0.164,0.062,0.313,0.154,0.442,0.272c0.137,0.127,0.247,0.279,0.325,0.449
	c0.178,0.444,0.17,0.942-0.021,1.381c-0.091,0.177-0.219,0.331-0.376,0.452c-0.147,0.117-0.314,0.205-0.494,0.26
	c-0.169,0.054-0.342,0.094-0.518,0.12l1.748,2.887h-0.636l-1.692-2.853h-1.036v2.853h-0.57V92.642z M135.17,95.29h1.188
	c0.244,0.007,0.488-0.03,0.718-0.11c0.162-0.058,0.308-0.15,0.428-0.273c0.097-0.096,0.168-0.215,0.207-0.346
	c0.036-0.111,0.054-0.228,0.056-0.345c-0.001-0.117-0.02-0.233-0.056-0.345c-0.039-0.131-0.11-0.25-0.207-0.346
	c-0.122-0.12-0.268-0.213-0.428-0.273c-0.23-0.08-0.474-0.117-0.718-0.109h-1.188V95.29z"/>
<path fill="#FFFFFF" d="M143.039,92.642h0.545v6.011h-0.559L143.039,92.642z"/>
<path fill="#FFFFFF" d="M149.979,93.148h-2.072v-0.507h4.671v0.507h-2.054v5.504h-0.56L149.979,93.148z"/>
<path fill="#FFFFFF" d="M158.249,96.063l-2.206-3.422h0.662l1.82,2.853l1.857-2.853h0.629l-2.207,3.422v2.589h-0.563L158.249,96.063
	z"/>
<path fill="#FFFFFF" d="M170.955,97.541c0.134,0.24,0.332,0.438,0.574,0.57c0.248,0.127,0.525,0.191,0.805,0.186
	c0.178,0.002,0.355-0.027,0.524-0.086c0.157-0.051,0.304-0.133,0.432-0.238c0.121-0.101,0.22-0.227,0.286-0.369
	c0.074-0.152,0.111-0.318,0.107-0.487c0.007-0.182-0.039-0.361-0.131-0.518c-0.088-0.14-0.206-0.258-0.346-0.345
	c-0.157-0.094-0.324-0.168-0.497-0.225l-0.569-0.19c-0.199-0.054-0.396-0.118-0.588-0.193c-0.18-0.077-0.348-0.183-0.497-0.311
	c-0.147-0.134-0.265-0.298-0.345-0.479c-0.094-0.227-0.139-0.469-0.132-0.712c-0.005-0.247,0.05-0.491,0.159-0.712
	c0.1-0.202,0.245-0.379,0.425-0.518c0.185-0.141,0.392-0.248,0.614-0.314c0.236-0.07,0.482-0.106,0.729-0.106
	c0.314-0.003,0.625,0.057,0.915,0.176c0.29,0.124,0.541,0.324,0.726,0.58l-0.484,0.345c-0.26-0.39-0.705-0.615-1.174-0.594
	c-0.174,0-0.347,0.023-0.514,0.073c-0.156,0.043-0.303,0.114-0.432,0.21c-0.121,0.094-0.221,0.211-0.294,0.346
	c-0.076,0.156-0.114,0.33-0.11,0.504c-0.015,0.252,0.068,0.499,0.231,0.691c0.161,0.168,0.356,0.299,0.573,0.383
	c0.242,0.099,0.492,0.181,0.746,0.245c0.258,0.068,0.51,0.163,0.749,0.283c0.228,0.119,0.423,0.289,0.573,0.497
	c0.165,0.263,0.244,0.57,0.228,0.881c0.007,0.248-0.046,0.496-0.151,0.721c-0.098,0.205-0.237,0.387-0.411,0.532
	c-0.178,0.147-0.382,0.259-0.601,0.328c-0.224,0.071-0.457,0.106-0.691,0.106c-0.375,0.005-0.746-0.065-1.094-0.207
	c-0.346-0.145-0.644-0.385-0.86-0.689L170.955,97.541z"/>
<path fill="#FFFFFF" d="M178.914,92.642h0.561v6.011h-0.561V92.642z"/>
<path fill="#FFFFFF" d="M184.46,92.642h0.843l2.192,5.044l2.188-5.044h0.799v6.011h-0.561v-5.3h-0.017l-2.293,5.3h-0.245l-2.327-5.3
	h-0.021v5.3h-0.563L184.46,92.642z"/>
<path fill="#FFFFFF" d="M195.468,92.642h1.727c0.222,0.001,0.442,0.025,0.659,0.072c0.223,0.046,0.436,0.13,0.629,0.249
	c0.193,0.123,0.353,0.291,0.466,0.49c0.13,0.238,0.193,0.506,0.183,0.777c0.004,0.238-0.047,0.475-0.148,0.689
	c-0.094,0.191-0.23,0.357-0.4,0.487c-0.172,0.132-0.367,0.229-0.576,0.286c-0.225,0.064-0.457,0.096-0.69,0.094h-1.298v2.852h-0.563
	L195.468,92.642z M196.031,95.29h1.273c0.157,0.001,0.314-0.019,0.467-0.056c0.145-0.035,0.283-0.096,0.406-0.18
	c0.121-0.084,0.221-0.195,0.291-0.324c0.076-0.155,0.115-0.327,0.11-0.5c0.006-0.173-0.034-0.344-0.118-0.494
	c-0.071-0.137-0.173-0.254-0.297-0.346c-0.126-0.091-0.27-0.156-0.421-0.193c-0.155-0.038-0.313-0.059-0.473-0.059h-1.239V95.29z"/>
<path fill="#FFFFFF" d="M203.741,92.642h0.56v5.504h2.817v0.507h-3.363L203.741,92.642z"/>
<path fill="#FFFFFF" d="M211.386,92.642h0.566v6.011h-0.56L211.386,92.642z"/>
<path fill="#FFFFFF" d="M216.993,92.642h3.591v0.507h-3.041v2.152h2.827v0.51h-2.827v2.854h-0.55V92.642z"/>
<path fill="#FFFFFF" d="M225.111,92.642h0.559v6.011h-0.559V92.642z"/>
<path fill="#FFFFFF" d="M230.715,92.642h3.682v0.507h-3.107v2.152h2.92v0.51h-2.92v2.346h3.252v0.508h-3.799L230.715,92.642z"/>
<path fill="#FFFFFF" d="M239.074,92.642h1.861c0.449-0.012,0.896,0.053,1.322,0.19c0.328,0.107,0.635,0.272,0.905,0.486
	c0.228,0.184,0.421,0.406,0.569,0.659c0.129,0.218,0.232,0.45,0.308,0.69c0.06,0.195,0.101,0.395,0.12,0.598
	c0.018,0.18,0.028,0.304,0.028,0.377c0,0.072,0,0.199-0.028,0.379c-0.021,0.203-0.061,0.402-0.12,0.598
	c-0.075,0.241-0.179,0.473-0.308,0.691c-0.148,0.25-0.342,0.473-0.569,0.655c-0.271,0.216-0.576,0.382-0.905,0.49
	c-0.427,0.138-0.873,0.202-1.322,0.19h-1.861V92.642z M239.634,98.146h1.157c0.375,0.001,0.75-0.048,1.111-0.148
	c0.328-0.091,0.634-0.246,0.901-0.456c0.259-0.209,0.466-0.475,0.604-0.777c0.295-0.715,0.295-1.518,0-2.233
	c-0.139-0.302-0.346-0.568-0.604-0.776c-0.268-0.211-0.573-0.365-0.901-0.457c-0.361-0.1-0.736-0.149-1.111-0.148h-1.157V98.146z"/>
</svg>
